<svg xmlns="http://www.w3.org/2000/svg" xmlns:xlink="http://www.w3.org/1999/xlink" width="306" height="245" version="1.1" viewBox="0 0 306 245"><title>On Light</title><desc>Created with Sketch.</desc><defs><radialGradient id="radialGradient-1" cx="50%" cy="0%" r="100%" fx="50%" fy="0%"><stop offset="0%" stop-color="#17E1BA"/><stop offset="100%" stop-color="#03AF8E"/></radialGradient></defs><g id="Page-1" fill="none" fill-rule="evenodd" stroke="none" stroke-width="1"><g id="On-Light" transform="translate(-1.000000, -1.000000)"><polygon id="Path-12" fill="url(#radialGradient-1)" stroke="#979797" points="81.932 28.562 31.164 71.567 154.222 194.223 278.383 72.224 225.05 26.354"/><g id="Group" fill="url(#radialGradient-1)"><polygon id="Combined-Shape" points="157.575 194.065 278.16 76.073 301.873 96.398 303.771 98.025 307.025 94.229 305.127 92.602 281.747 72.562 292.248 62.287 294.035 60.538 290.538 56.965 288.752 58.713 277.936 69.296 232.091 30 256.5 30 259 30 259 25 256.5 25 226.258 25 200.127 2.602 198.229 .975 194.975 4.771 196.873 6.398 218.575 25 89.425 25 111.127 6.398 113.025 4.771 109.771 .975 107.873 2.602 81.742 25 51.5 25 49 25 49 30 51.5 30 75.909 30 30.064 69.296 19.248 58.713 17.462 56.965 13.965 60.538 15.752 62.287 26.253 72.562 2.873 92.602 .975 94.229 4.229 98.025 6.127 96.398 29.84 76.073 150.425 194.065 102.752 240.713 100.965 242.462 104.462 246.035 106.248 244.287 154 197.562 201.752 244.287 203.538 246.035 207.035 242.462 205.248 240.713 157.575 194.065"/></g><path id="H" fill="#FFF" d="M169.614,52.507 C170.172,56.134 170.358,59.854 170.358,66.271 L170.358,81.709 L139.017,81.709 L139.017,66.271 C139.017,60.505 139.203,56.878 139.761,52.507 L119.766,52.507 C120.324,56.506 120.51,59.854 120.51,66.271 L120.51,116.119 C120.51,122.629 120.324,126.07 119.766,129.883 L139.761,129.883 C139.203,125.698 139.017,122.164 139.017,116.119 L139.017,98.077 L170.358,98.077 L170.358,116.119 C170.358,122.536 170.172,125.977 169.614,129.883 L189.609,129.883 C189.051,125.326 188.865,122.164 188.865,116.119 L188.865,66.271 C188.865,59.761 189.051,56.32 189.609,52.507 L169.614,52.507 Z"/></g></g></svg>