<svg xmlns="http://www.w3.org/2000/svg" xmlns:xlink="http://www.w3.org/1999/xlink" width="306" height="245" version="1.1" viewBox="0 0 306 245"><title>On Dark</title><desc>Created with Sketch.</desc><g id="Page-1" fill="none" fill-rule="evenodd" stroke="none" stroke-width="1"><g id="On-Dark" fill="#FFF" transform="translate(-1.000000, -1.000000)"><g id="Group"><path id="Combined-Shape" d="M81.767919,29.2074953 L31,72.2122773 L154.058358,194.868053 L278.219345,72.8698291 L224.88608,27 L81.767919,29.2074953 Z M169.614,52.507 C170.172,56.134 170.358,59.854 170.358,66.271 L170.358,81.709 L139.017,81.709 L139.017,66.271 C139.017,60.505 139.203,56.878 139.761,52.507 L119.766,52.507 C120.324,56.506 120.51,59.854 120.51,66.271 L120.51,116.119 C120.51,122.629 120.324,126.07 119.766,129.883 L139.761,129.883 C139.203,125.698 139.017,122.164 139.017,116.119 L139.017,98.077 L170.358,98.077 L170.358,116.119 C170.358,122.536 170.172,125.977 169.614,129.883 L189.609,129.883 C189.051,125.326 188.865,122.164 188.865,116.119 L188.865,66.271 C188.865,59.761 189.051,56.32 189.609,52.507 L169.614,52.507 Z"/><polygon id="Line" points="256.5 25 51.5 25 49 25 49 30 51.5 30 256.5 30 259 30 259 25"/><polygon id="Line" points="196.873 6.398 301.873 96.398 303.771 98.025 307.025 94.229 305.127 92.602 200.127 2.602 198.229 .975 194.975 4.771"/><polygon id="Line" points="288.752 58.713 102.752 240.713 100.965 242.462 104.462 246.035 106.248 244.287 292.248 62.287 294.035 60.538 290.538 56.965"/><polygon id="Line" points="51.5 30 256.5 30 259 30 259 25 256.5 25 51.5 25 49 25 49 30"/><polygon id="Line" points="107.873 2.602 2.873 92.602 .975 94.229 4.229 98.025 6.127 96.398 111.127 6.398 113.025 4.771 109.771 .975"/><polygon id="Line" points="15.752 62.287 201.752 244.287 203.538 246.035 207.035 242.462 205.248 240.713 19.248 58.713 17.462 56.965 13.965 60.538"/></g></g></g></svg>