<svg xmlns="http://www.w3.org/2000/svg" xmlns:svg="http://www.w3.org/2000/svg" id="svg2" width="800" height="300" version="1.1"><defs id="defs4"><marker id="Arrow2Mend" orient="auto" refX="0" refY="0" style="overflow:visible"><path id="path4966" d="M 8.7185878,4.0337352 L -2.2072895,0.016013256 L 8.7185884,-4.0017078 C 6.9730900,-1.6296469 6.9831476,1.6157441 8.7185878,4.0337352 z" transform="scale(0.6) rotate(180) translate(0,0)" style="fill-rule:evenodd;stroke-width:.625;stroke-linejoin:round"/></marker><marker id="Arrow1Lend" orient="auto" refX="0" refY="0" style="overflow:visible"><path id="path4942" d="M 0.0,0.0 L 5.0,-5.0 L -12.5,0.0 L 5.0,5.0 L 0.0,0.0 z" transform="scale(0.8) rotate(180) translate(12.5,0)" style="fill-rule:evenodd;stroke:#000;stroke-width:1pt"/></marker><marker id="DotL" orient="auto" refX="0" refY="0" style="overflow:visible"><path id="path5000" d="M -2.5,-1.0 C -2.5,1.7600000 -4.7400000,4.0 -7.5,4.0 C -10.260000,4.0 -12.5,1.7600000 -12.5,-1.0 C -12.5,-3.7600000 -10.260000,-6.0 -7.5,-6.0 C -4.7400000,-6.0 -2.5,-3.7600000 -2.5,-1.0 z" transform="scale(0.8) translate(7.4, 1)" style="fill-rule:evenodd;stroke:#000;stroke-width:1pt"/></marker><marker id="Arrow1Mend" orient="auto" refX="0" refY="0" style="overflow:visible"><path id="path4948" d="M 0,0 5,-5 -12.5,0 5,5 0,0 z" transform="matrix(-0.4,0,0,-0.4,-4,0)" style="fill-rule:evenodd;stroke:#000;stroke-width:1pt"/></marker><marker id="Arrow2Lend" orient="auto" refX="0" refY="0" style="overflow:visible"><path id="path4960" d="M 8.7185878,4.0337352 -2.2072895,0.01601326 8.7185884,-4.0017078 c -1.7454984,2.3720609 -1.7354408,5.6174519 -6e-7,8.035443 z" transform="matrix(-1.1,0,0,-1.1,-1.1,0)" style="fill-rule:evenodd;stroke-width:.625;stroke-linejoin:round"/></marker><marker id="EmptyDiamondL" orient="auto" refX="0" refY="0" style="overflow:visible"><path id="path5045" d="M 0,-7.0710768 -7.0710894,0 0,7.0710589 7.0710462,0 0,-7.0710768 z" transform="scale(0.8,0.8)" style="fill:#fff;fill-rule:evenodd;stroke:#000;stroke-width:1pt"/></marker><marker id="SemiCircleOut" orient="auto" refX="0" refY="0" style="overflow:visible"><path id="path5120" d="m -2.5,-0.80913858 c 0,2.75999998 -2.24,4.99999998 -5,4.99999998 l 0,-10 c 2.76,0 5,2.24 5,5.00000002 z" transform="matrix(0.6,0,0,0.6,4.2752958,0.4580676)" style="fill-rule:evenodd;stroke:#000;stroke-width:1pt"/></marker><marker id="TriangleOutL" orient="auto" refX="0" refY="0" style="overflow:visible"><path id="path5081" d="m 5.77,0 -8.65,5 0,-10 8.65,5 z" transform="scale(0.8,0.8)" style="fill-rule:evenodd;stroke:#000;stroke-width:1pt"/></marker><marker id="TriangleOutL-6" orient="auto" refX="0" refY="0" style="overflow:visible"><path id="path5081-9" d="m 5.77,0 -8.65,5 0,-10 8.65,5 z" transform="scale(0.8,0.8)" style="fill-rule:evenodd;stroke:#000;stroke-width:1pt"/></marker></defs><metadata id="metadata7"/><g id="layer1" transform="translate(0,-752.36218)"><g id="g7830" transform="translate(-20.160713,-90.928552)"><g id="g7863" transform="translate(-3.9648401,21.198364)"><g id="g7853" transform="translate(0,-186)"><g id="g10528" transform="translate(-3.1103468e-8,-40.000029)"><g id="g10561" transform="translate(2.8369141,-2.1298229e-7)"><path style="fill:none;fill-rule:evenodd;stroke:#000;stroke-width:2;stroke-linecap:round;stroke-linejoin:round;stroke-miterlimit:4;stroke-dasharray:none;stroke-opacity:1" id="path6912" d="m 107.14286,998.25502 207.14285,0 0,-11.42857" transform="translate(1e-7,186)"/><path style="fill:none;fill-rule:evenodd;stroke:#000;stroke-width:2;stroke-linecap:round;stroke-linejoin:round;stroke-miterlimit:4;stroke-dasharray:none;stroke-opacity:1" id="path6912-1" d="m 317.30359,998.25505 207.14285,0 0,-11.4286" transform="translate(1e-7,186)"/><path style="fill:none;fill-rule:evenodd;stroke:#000;stroke-width:2;stroke-linecap:round;stroke-linejoin:round;stroke-miterlimit:4;stroke-dasharray:none;stroke-opacity:1" id="path6912-1-8" d="m 527.46429,998.2551 207.14285,0 0,-11.42865" transform="translate(1e-7,186)"/><text style="font-style:normal;font-weight:400;font-size:40px;line-height:125%;font-family:Sans;text-align:center;letter-spacing:0;word-spacing:0;text-anchor:middle;fill:#000;fill-opacity:1;stroke:none;stroke-width:1px;stroke-linecap:butt;stroke-linejoin:miter;stroke-opacity:1" id="text7841" x="315.769" y="1143.291" xml:space="preserve"><tspan id="tspan7843" x="315.769" y="1143.291">1</tspan></text><text style="font-style:normal;font-weight:400;font-size:40px;line-height:125%;font-family:Sans;text-align:center;letter-spacing:0;word-spacing:0;text-anchor:middle;fill:#000;fill-opacity:1;stroke:none;stroke-width:1px;stroke-linecap:butt;stroke-linejoin:miter;stroke-opacity:1" id="text7845" x="525.245" y="1143.291" xml:space="preserve"><tspan id="tspan7847" x="525.245" y="1143.291">2</tspan></text><text style="font-style:normal;font-weight:400;font-size:40px;line-height:125%;font-family:Sans;text-align:center;letter-spacing:0;word-spacing:0;text-anchor:middle;fill:#000;fill-opacity:1;stroke:none;stroke-width:1px;stroke-linecap:butt;stroke-linejoin:miter;stroke-opacity:1" id="text7849" x="732.221" y="1142.724" xml:space="preserve"><tspan id="tspan7851" x="732.221" y="1142.724">3</tspan></text><circle style="opacity:1;fill:red;fill-opacity:1;stroke:none;stroke-width:2;stroke-linecap:round;stroke-linejoin:round;stroke-miterlimit:4;stroke-dasharray:none;stroke-opacity:1" id="path10360" cx="124.667" cy="1250.64" r="5.524"/><circle style="opacity:1;fill:red;fill-opacity:1;stroke:none;stroke-width:2;stroke-linecap:round;stroke-linejoin:round;stroke-miterlimit:4;stroke-dasharray:none;stroke-opacity:1" id="path10360-0" cx="180.376" cy="1219.811" r="5.524"/><circle style="opacity:1;fill:red;fill-opacity:1;stroke:none;stroke-width:2;stroke-linecap:round;stroke-linejoin:round;stroke-miterlimit:4;stroke-dasharray:none;stroke-opacity:1" id="path10360-3" cx="203.813" cy="1272.936" r="5.524"/><circle style="opacity:1;fill:red;fill-opacity:1;stroke:none;stroke-width:2;stroke-linecap:round;stroke-linejoin:round;stroke-miterlimit:4;stroke-dasharray:none;stroke-opacity:1" id="path10360-9" cx="243.657" cy="1244.03" r="5.524"/><circle style="opacity:1;fill:#00f;fill-opacity:1;stroke:none;stroke-width:2;stroke-linecap:round;stroke-linejoin:round;stroke-miterlimit:4;stroke-dasharray:none;stroke-opacity:1" id="path10360-5" cx="290.532" cy="1276.061" r="5.524"/><circle style="opacity:1;fill:red;fill-opacity:1;stroke:none;stroke-width:2;stroke-linecap:round;stroke-linejoin:round;stroke-miterlimit:4;stroke-dasharray:none;stroke-opacity:1" id="path10360-7" cx="289.751" cy="1245.592" r="5.524"/><circle style="opacity:1;fill:#0f0;fill-opacity:1;stroke:none;stroke-width:2;stroke-linecap:round;stroke-linejoin:round;stroke-miterlimit:4;stroke-dasharray:none;stroke-opacity:1" id="path10360-1" cx="354.594" cy="1237.78" r="5.524"/><circle style="opacity:1;fill:#00f;fill-opacity:1;stroke:none;stroke-width:2;stroke-linecap:round;stroke-linejoin:round;stroke-miterlimit:4;stroke-dasharray:none;stroke-opacity:1" id="path10360-96" cx="352.251" cy="1272.936" r="5.524"/><circle style="opacity:1;fill:#0f0;fill-opacity:1;stroke:none;stroke-width:2;stroke-linecap:round;stroke-linejoin:round;stroke-miterlimit:4;stroke-dasharray:none;stroke-opacity:1" id="path10360-2" cx="388.969" cy="1243.249" r="5.524"/><circle style="opacity:1;fill:#0f0;fill-opacity:1;stroke:none;stroke-width:2;stroke-linecap:round;stroke-linejoin:round;stroke-miterlimit:4;stroke-dasharray:none;stroke-opacity:1" id="path10360-95" cx="465.532" cy="1248.717" r="5.524"/><circle style="opacity:1;fill:#00f;fill-opacity:1;stroke:none;stroke-width:2;stroke-linecap:round;stroke-linejoin:round;stroke-miterlimit:4;stroke-dasharray:none;stroke-opacity:1" id="path10360-4" cx="418.657" cy="1271.374" r="5.524"/><circle style="opacity:1;fill:#0f0;fill-opacity:1;stroke:none;stroke-width:2;stroke-linecap:round;stroke-linejoin:round;stroke-miterlimit:4;stroke-dasharray:none;stroke-opacity:1" id="path10360-93" cx="506.157" cy="1233.874" r="5.524"/><circle style="opacity:1;fill:#0f0;fill-opacity:1;stroke:none;stroke-width:2;stroke-linecap:round;stroke-linejoin:round;stroke-miterlimit:4;stroke-dasharray:none;stroke-opacity:1" id="path10360-8" cx="552.251" cy="1234.655" r="5.524"/><circle style="opacity:1;fill:#00f;fill-opacity:1;stroke:none;stroke-width:2;stroke-linecap:round;stroke-linejoin:round;stroke-miterlimit:4;stroke-dasharray:none;stroke-opacity:1" id="path10360-79" cx="566.313" cy="1261.217" r="5.524"/><circle style="opacity:1;fill:#0f0;fill-opacity:1;stroke:none;stroke-width:2;stroke-linecap:round;stroke-linejoin:round;stroke-miterlimit:4;stroke-dasharray:none;stroke-opacity:1" id="path10360-6" cx="606.938" cy="1244.03" r="5.524"/><circle style="opacity:1;fill:#00f;fill-opacity:1;stroke:none;stroke-width:2;stroke-linecap:round;stroke-linejoin:round;stroke-miterlimit:4;stroke-dasharray:none;stroke-opacity:1" id="path10360-91" cx="640.532" cy="1277.624" r="5.524"/><circle style="opacity:1;fill:#0f0;fill-opacity:1;stroke:none;stroke-width:2;stroke-linecap:round;stroke-linejoin:round;stroke-miterlimit:4;stroke-dasharray:none;stroke-opacity:1" id="path10360-01" cx="699.126" cy="1236.217" r="5.524"/></g></g></g></g></g></g></svg>